<mxfile host="app.diagrams.net" agent="Mozilla/5.0 (Windows NT 10.0; Win64; x64) AppleWebKit/537.36 (KHTML, like Gecko) Chrome/131.0.0.0 Safari/537.36 OPR/116.0.0.0 (Edition std-2)" version="26.0.16">
  <diagram name="Страница — 1" id="gGx4beJSDWos4RjkBC_M">
    <mxGraphModel dx="1008" dy="569" grid="1" gridSize="10" guides="1" tooltips="1" connect="1" arrows="1" fold="1" page="1" pageScale="1" pageWidth="827" pageHeight="1169" math="0" shadow="0">
      <root>
        <mxCell id="0" />
        <mxCell id="1" parent="0" />
        <mxCell id="cv6yg6oXkQrr2uaZ3wx9-1" value="myShip" style="swimlane;fontStyle=1;align=center;verticalAlign=top;childLayout=stackLayout;horizontal=1;startSize=26;horizontalStack=0;resizeParent=1;resizeParentMax=0;resizeLast=0;collapsible=1;marginBottom=0;whiteSpace=wrap;html=1;" vertex="1" parent="1">
          <mxGeometry x="480" y="30" width="160" height="260" as="geometry" />
        </mxCell>
        <mxCell id="cv6yg6oXkQrr2uaZ3wx9-2" value="-Orientation:bool&lt;div&gt;-Coord int&lt;/div&gt;&lt;div&gt;-Length int&lt;/div&gt;&lt;div&gt;-Isdeath: bool&lt;/div&gt;&lt;div&gt;-isattack:bool&lt;/div&gt;" style="text;strokeColor=none;fillColor=none;align=left;verticalAlign=top;spacingLeft=4;spacingRight=4;overflow=hidden;rotatable=0;points=[[0,0.5],[1,0.5]];portConstraint=eastwest;whiteSpace=wrap;html=1;" vertex="1" parent="cv6yg6oXkQrr2uaZ3wx9-1">
          <mxGeometry y="26" width="160" height="84" as="geometry" />
        </mxCell>
        <mxCell id="cv6yg6oXkQrr2uaZ3wx9-53" value="1" style="endArrow=open;html=1;endSize=12;startArrow=diamondThin;startSize=14;startFill=1;edgeStyle=orthogonalEdgeStyle;align=left;verticalAlign=bottom;rounded=0;" edge="1" parent="cv6yg6oXkQrr2uaZ3wx9-1" target="cv6yg6oXkQrr2uaZ3wx9-18">
          <mxGeometry x="-1" y="3" relative="1" as="geometry">
            <mxPoint x="-80" y="90" as="sourcePoint" />
            <mxPoint x="-30" y="290" as="targetPoint" />
            <Array as="points">
              <mxPoint x="-30" y="90" />
              <mxPoint x="-30" y="290" />
              <mxPoint x="320" y="290" />
            </Array>
          </mxGeometry>
        </mxCell>
        <mxCell id="cv6yg6oXkQrr2uaZ3wx9-54" value="1" style="edgeLabel;html=1;align=center;verticalAlign=middle;resizable=0;points=[];" vertex="1" connectable="0" parent="cv6yg6oXkQrr2uaZ3wx9-53">
          <mxGeometry x="0.8413" relative="1" as="geometry">
            <mxPoint x="40" y="-14" as="offset" />
          </mxGeometry>
        </mxCell>
        <mxCell id="cv6yg6oXkQrr2uaZ3wx9-3" value="" style="line;strokeWidth=1;fillColor=none;align=left;verticalAlign=middle;spacingTop=-1;spacingLeft=3;spacingRight=3;rotatable=0;labelPosition=right;points=[];portConstraint=eastwest;strokeColor=inherit;" vertex="1" parent="cv6yg6oXkQrr2uaZ3wx9-1">
          <mxGeometry y="110" width="160" height="30" as="geometry" />
        </mxCell>
        <mxCell id="cv6yg6oXkQrr2uaZ3wx9-4" value="&lt;br&gt;&lt;div&gt;+Set position:void&lt;/div&gt;&lt;div&gt;+Check shot coord:list&lt;/div&gt;" style="text;strokeColor=none;fillColor=none;align=left;verticalAlign=top;spacingLeft=4;spacingRight=4;overflow=hidden;rotatable=0;points=[[0,0.5],[1,0.5]];portConstraint=eastwest;whiteSpace=wrap;html=1;" vertex="1" parent="cv6yg6oXkQrr2uaZ3wx9-1">
          <mxGeometry y="140" width="160" height="120" as="geometry" />
        </mxCell>
        <mxCell id="cv6yg6oXkQrr2uaZ3wx9-6" value="Client" style="swimlane;fontStyle=1;align=center;verticalAlign=top;childLayout=stackLayout;horizontal=1;startSize=26;horizontalStack=0;resizeParent=1;resizeParentMax=0;resizeLast=0;collapsible=1;marginBottom=0;whiteSpace=wrap;html=1;" vertex="1" parent="1">
          <mxGeometry x="240" y="30" width="160" height="200" as="geometry" />
        </mxCell>
        <mxCell id="cv6yg6oXkQrr2uaZ3wx9-7" value="&lt;div&gt;- - tcpsocket: Tcpsocket *&lt;/div&gt;&lt;div&gt;- login: QString&lt;/div&gt;&lt;div&gt;- id_connection: int&lt;/div&gt;" style="text;strokeColor=none;fillColor=none;align=left;verticalAlign=top;spacingLeft=4;spacingRight=4;overflow=hidden;rotatable=0;points=[[0,0.5],[1,0.5]];portConstraint=eastwest;whiteSpace=wrap;html=1;" vertex="1" parent="cv6yg6oXkQrr2uaZ3wx9-6">
          <mxGeometry y="26" width="160" height="44" as="geometry" />
        </mxCell>
        <mxCell id="cv6yg6oXkQrr2uaZ3wx9-8" value="" style="line;strokeWidth=1;fillColor=none;align=left;verticalAlign=middle;spacingTop=-1;spacingLeft=3;spacingRight=3;rotatable=0;labelPosition=right;points=[];portConstraint=eastwest;strokeColor=inherit;" vertex="1" parent="cv6yg6oXkQrr2uaZ3wx9-6">
          <mxGeometry y="70" width="160" height="40" as="geometry" />
        </mxCell>
        <mxCell id="cv6yg6oXkQrr2uaZ3wx9-9" value="&lt;div&gt;+ MyClient()&lt;/div&gt;&lt;div&gt;+ ~MyClient()&lt;/div&gt;&lt;div&gt;+ is auth() : bool&lt;/div&gt;" style="text;strokeColor=none;fillColor=none;align=left;verticalAlign=top;spacingLeft=4;spacingRight=4;overflow=hidden;rotatable=0;points=[[0,0.5],[1,0.5]];portConstraint=eastwest;whiteSpace=wrap;html=1;" vertex="1" parent="cv6yg6oXkQrr2uaZ3wx9-6">
          <mxGeometry y="110" width="160" height="90" as="geometry" />
        </mxCell>
        <mxCell id="cv6yg6oXkQrr2uaZ3wx9-10" value="Server" style="swimlane;fontStyle=1;align=center;verticalAlign=top;childLayout=stackLayout;horizontal=1;startSize=26;horizontalStack=0;resizeParent=1;resizeParentMax=0;resizeLast=0;collapsible=1;marginBottom=0;whiteSpace=wrap;html=1;" vertex="1" parent="1">
          <mxGeometry x="20" y="30" width="160" height="200" as="geometry" />
        </mxCell>
        <mxCell id="cv6yg6oXkQrr2uaZ3wx9-11" value="- - tcpserver: Tcpserver *&lt;div&gt;- - clients: List&amp;lt;My Client&amp;gt;&lt;/div&gt;" style="text;strokeColor=none;fillColor=none;align=left;verticalAlign=top;spacingLeft=4;spacingRight=4;overflow=hidden;rotatable=0;points=[[0,0.5],[1,0.5]];portConstraint=eastwest;whiteSpace=wrap;html=1;" vertex="1" parent="cv6yg6oXkQrr2uaZ3wx9-10">
          <mxGeometry y="26" width="160" height="44" as="geometry" />
        </mxCell>
        <mxCell id="cv6yg6oXkQrr2uaZ3wx9-12" value="" style="line;strokeWidth=1;fillColor=none;align=left;verticalAlign=middle;spacingTop=-1;spacingLeft=3;spacingRight=3;rotatable=0;labelPosition=right;points=[];portConstraint=eastwest;strokeColor=inherit;" vertex="1" parent="cv6yg6oXkQrr2uaZ3wx9-10">
          <mxGeometry y="70" width="160" height="8" as="geometry" />
        </mxCell>
        <mxCell id="cv6yg6oXkQrr2uaZ3wx9-13" value="&lt;div&gt;+ MyTcpServer(QObject&quot;)&lt;/div&gt;&lt;div&gt;+ ~MyTcpServer()&lt;/div&gt;&lt;div&gt;+ slotNewConnection(): void&lt;/div&gt;&lt;div&gt;+ + slot Server Read(): void&lt;/div&gt;&lt;div&gt;+ + slot OnClientDisconnected(): void&lt;/div&gt;" style="text;strokeColor=none;fillColor=none;align=left;verticalAlign=top;spacingLeft=4;spacingRight=4;overflow=hidden;rotatable=0;points=[[0,0.5],[1,0.5]];portConstraint=eastwest;whiteSpace=wrap;html=1;" vertex="1" parent="cv6yg6oXkQrr2uaZ3wx9-10">
          <mxGeometry y="78" width="160" height="122" as="geometry" />
        </mxCell>
        <mxCell id="cv6yg6oXkQrr2uaZ3wx9-18" value="myTable" style="swimlane;fontStyle=1;align=center;verticalAlign=top;childLayout=stackLayout;horizontal=1;startSize=26;horizontalStack=0;resizeParent=1;resizeParentMax=0;resizeLast=0;collapsible=1;marginBottom=0;whiteSpace=wrap;html=1;" vertex="1" parent="1">
          <mxGeometry x="720" y="172" width="160" height="118" as="geometry" />
        </mxCell>
        <mxCell id="cv6yg6oXkQrr2uaZ3wx9-19" value="-Coord: 2 list int&lt;div&gt;-Shot coord&lt;/div&gt;" style="text;strokeColor=none;fillColor=none;align=left;verticalAlign=top;spacingLeft=4;spacingRight=4;overflow=hidden;rotatable=0;points=[[0,0.5],[1,0.5]];portConstraint=eastwest;whiteSpace=wrap;html=1;" vertex="1" parent="cv6yg6oXkQrr2uaZ3wx9-18">
          <mxGeometry y="26" width="160" height="54" as="geometry" />
        </mxCell>
        <mxCell id="cv6yg6oXkQrr2uaZ3wx9-50" value="1" style="endArrow=open;html=1;endSize=12;startArrow=diamondThin;startSize=14;startFill=1;edgeStyle=orthogonalEdgeStyle;align=left;verticalAlign=bottom;rounded=0;entryX=0.998;entryY=0.077;entryDx=0;entryDy=0;entryPerimeter=0;" edge="1" parent="cv6yg6oXkQrr2uaZ3wx9-18" target="cv6yg6oXkQrr2uaZ3wx9-1">
          <mxGeometry x="-1" y="3" relative="1" as="geometry">
            <mxPoint x="-10" y="58.5" as="sourcePoint" />
            <mxPoint x="150" y="58.5" as="targetPoint" />
          </mxGeometry>
        </mxCell>
        <mxCell id="cv6yg6oXkQrr2uaZ3wx9-51" value="10" style="edgeLabel;html=1;align=center;verticalAlign=middle;resizable=0;points=[];" vertex="1" connectable="0" parent="cv6yg6oXkQrr2uaZ3wx9-50">
          <mxGeometry x="0.7906" y="2" relative="1" as="geometry">
            <mxPoint y="-12" as="offset" />
          </mxGeometry>
        </mxCell>
        <mxCell id="cv6yg6oXkQrr2uaZ3wx9-20" value="" style="line;strokeWidth=1;fillColor=none;align=left;verticalAlign=middle;spacingTop=-1;spacingLeft=3;spacingRight=3;rotatable=0;labelPosition=right;points=[];portConstraint=eastwest;strokeColor=inherit;" vertex="1" parent="cv6yg6oXkQrr2uaZ3wx9-18">
          <mxGeometry y="80" width="160" height="8" as="geometry" />
        </mxCell>
        <mxCell id="cv6yg6oXkQrr2uaZ3wx9-21" value="+Shot : void" style="text;strokeColor=none;fillColor=none;align=left;verticalAlign=top;spacingLeft=4;spacingRight=4;overflow=hidden;rotatable=0;points=[[0,0.5],[1,0.5]];portConstraint=eastwest;whiteSpace=wrap;html=1;" vertex="1" parent="cv6yg6oXkQrr2uaZ3wx9-18">
          <mxGeometry y="88" width="160" height="30" as="geometry" />
        </mxCell>
        <mxCell id="cv6yg6oXkQrr2uaZ3wx9-56" style="edgeStyle=orthogonalEdgeStyle;rounded=0;orthogonalLoop=1;jettySize=auto;html=1;entryX=0.5;entryY=0;entryDx=0;entryDy=0;" edge="1" parent="1" source="cv6yg6oXkQrr2uaZ3wx9-22" target="cv6yg6oXkQrr2uaZ3wx9-1">
          <mxGeometry relative="1" as="geometry">
            <Array as="points">
              <mxPoint x="760" y="10" />
              <mxPoint x="560" y="10" />
            </Array>
          </mxGeometry>
        </mxCell>
        <mxCell id="cv6yg6oXkQrr2uaZ3wx9-22" value="GameWizard" style="swimlane;fontStyle=1;align=center;verticalAlign=top;childLayout=stackLayout;horizontal=1;startSize=26;horizontalStack=0;resizeParent=1;resizeParentMax=0;resizeLast=0;collapsible=1;marginBottom=0;whiteSpace=wrap;html=1;" vertex="1" parent="1">
          <mxGeometry x="720" y="30" width="160" height="100" as="geometry" />
        </mxCell>
        <mxCell id="cv6yg6oXkQrr2uaZ3wx9-24" value="" style="line;strokeWidth=1;fillColor=none;align=left;verticalAlign=middle;spacingTop=-1;spacingLeft=3;spacingRight=3;rotatable=0;labelPosition=right;points=[];portConstraint=eastwest;strokeColor=inherit;" vertex="1" parent="cv6yg6oXkQrr2uaZ3wx9-22">
          <mxGeometry y="26" width="160" height="8" as="geometry" />
        </mxCell>
        <mxCell id="cv6yg6oXkQrr2uaZ3wx9-25" value="+Check position ship(border cross):bool" style="text;strokeColor=none;fillColor=none;align=left;verticalAlign=top;spacingLeft=4;spacingRight=4;overflow=hidden;rotatable=0;points=[[0,0.5],[1,0.5]];portConstraint=eastwest;whiteSpace=wrap;html=1;" vertex="1" parent="cv6yg6oXkQrr2uaZ3wx9-22">
          <mxGeometry y="34" width="160" height="66" as="geometry" />
        </mxCell>
        <mxCell id="cv6yg6oXkQrr2uaZ3wx9-26" value="FuctionsForServer" style="swimlane;fontStyle=1;align=center;verticalAlign=top;childLayout=stackLayout;horizontal=1;startSize=26;horizontalStack=0;resizeParent=1;resizeParentMax=0;resizeLast=0;collapsible=1;marginBottom=0;whiteSpace=wrap;html=1;" vertex="1" parent="1">
          <mxGeometry x="20" y="280" width="210" height="200" as="geometry" />
        </mxCell>
        <mxCell id="cv6yg6oXkQrr2uaZ3wx9-27" value="&lt;div&gt;+ parsing(int, QString): QByteArray&lt;/div&gt;&lt;div&gt;+ auth(int, QString, QString): QByteArray&lt;/div&gt;&lt;div&gt;+ reg(QString, QString, QString):&lt;/div&gt;&lt;div&gt;QByteArray&lt;/div&gt;&lt;div&gt;+ lookmystat(int): QByteArray&lt;/div&gt;&lt;div&gt;+ lookallstat(): QByteArray&lt;/div&gt;" style="text;strokeColor=none;fillColor=none;align=left;verticalAlign=top;spacingLeft=4;spacingRight=4;overflow=hidden;rotatable=0;points=[[0,0.5],[1,0.5]];portConstraint=eastwest;whiteSpace=wrap;html=1;" vertex="1" parent="cv6yg6oXkQrr2uaZ3wx9-26">
          <mxGeometry y="26" width="210" height="154" as="geometry" />
        </mxCell>
        <mxCell id="cv6yg6oXkQrr2uaZ3wx9-28" value="" style="line;strokeWidth=1;fillColor=none;align=left;verticalAlign=middle;spacingTop=-1;spacingLeft=3;spacingRight=3;rotatable=0;labelPosition=right;points=[];portConstraint=eastwest;strokeColor=inherit;" vertex="1" parent="cv6yg6oXkQrr2uaZ3wx9-26">
          <mxGeometry y="180" width="210" height="20" as="geometry" />
        </mxCell>
        <mxCell id="cv6yg6oXkQrr2uaZ3wx9-30" value="DB_Destroyer" style="swimlane;fontStyle=1;align=center;verticalAlign=top;childLayout=stackLayout;horizontal=1;startSize=26;horizontalStack=0;resizeParent=1;resizeParentMax=0;resizeLast=0;collapsible=1;marginBottom=0;whiteSpace=wrap;html=1;" vertex="1" parent="1">
          <mxGeometry x="270" y="410" width="160" height="86" as="geometry" />
        </mxCell>
        <mxCell id="cv6yg6oXkQrr2uaZ3wx9-31" value="+ field: type" style="text;strokeColor=none;fillColor=none;align=left;verticalAlign=top;spacingLeft=4;spacingRight=4;overflow=hidden;rotatable=0;points=[[0,0.5],[1,0.5]];portConstraint=eastwest;whiteSpace=wrap;html=1;" vertex="1" parent="cv6yg6oXkQrr2uaZ3wx9-30">
          <mxGeometry y="26" width="160" height="26" as="geometry" />
        </mxCell>
        <mxCell id="cv6yg6oXkQrr2uaZ3wx9-32" value="" style="line;strokeWidth=1;fillColor=none;align=left;verticalAlign=middle;spacingTop=-1;spacingLeft=3;spacingRight=3;rotatable=0;labelPosition=right;points=[];portConstraint=eastwest;strokeColor=inherit;" vertex="1" parent="cv6yg6oXkQrr2uaZ3wx9-30">
          <mxGeometry y="52" width="160" height="8" as="geometry" />
        </mxCell>
        <mxCell id="cv6yg6oXkQrr2uaZ3wx9-33" value="+ method(type): type" style="text;strokeColor=none;fillColor=none;align=left;verticalAlign=top;spacingLeft=4;spacingRight=4;overflow=hidden;rotatable=0;points=[[0,0.5],[1,0.5]];portConstraint=eastwest;whiteSpace=wrap;html=1;" vertex="1" parent="cv6yg6oXkQrr2uaZ3wx9-30">
          <mxGeometry y="60" width="160" height="26" as="geometry" />
        </mxCell>
        <mxCell id="cv6yg6oXkQrr2uaZ3wx9-35" value="DB" style="swimlane;fontStyle=1;align=center;verticalAlign=top;childLayout=stackLayout;horizontal=1;startSize=26;horizontalStack=0;resizeParent=1;resizeParentMax=0;resizeLast=0;collapsible=1;marginBottom=0;whiteSpace=wrap;html=1;" vertex="1" parent="1">
          <mxGeometry x="270" y="280" width="160" height="86" as="geometry" />
        </mxCell>
        <mxCell id="cv6yg6oXkQrr2uaZ3wx9-36" value="+ field: type" style="text;strokeColor=none;fillColor=none;align=left;verticalAlign=top;spacingLeft=4;spacingRight=4;overflow=hidden;rotatable=0;points=[[0,0.5],[1,0.5]];portConstraint=eastwest;whiteSpace=wrap;html=1;" vertex="1" parent="cv6yg6oXkQrr2uaZ3wx9-35">
          <mxGeometry y="26" width="160" height="26" as="geometry" />
        </mxCell>
        <mxCell id="cv6yg6oXkQrr2uaZ3wx9-37" value="" style="line;strokeWidth=1;fillColor=none;align=left;verticalAlign=middle;spacingTop=-1;spacingLeft=3;spacingRight=3;rotatable=0;labelPosition=right;points=[];portConstraint=eastwest;strokeColor=inherit;" vertex="1" parent="cv6yg6oXkQrr2uaZ3wx9-35">
          <mxGeometry y="52" width="160" height="8" as="geometry" />
        </mxCell>
        <mxCell id="cv6yg6oXkQrr2uaZ3wx9-38" value="+ method(type): type" style="text;strokeColor=none;fillColor=none;align=left;verticalAlign=top;spacingLeft=4;spacingRight=4;overflow=hidden;rotatable=0;points=[[0,0.5],[1,0.5]];portConstraint=eastwest;whiteSpace=wrap;html=1;" vertex="1" parent="cv6yg6oXkQrr2uaZ3wx9-35">
          <mxGeometry y="60" width="160" height="26" as="geometry" />
        </mxCell>
        <mxCell id="cv6yg6oXkQrr2uaZ3wx9-39" value="1" style="endArrow=open;html=1;endSize=12;startArrow=diamondThin;startSize=14;startFill=0;edgeStyle=orthogonalEdgeStyle;align=left;verticalAlign=bottom;rounded=0;strokeWidth=1;" edge="1" parent="1">
          <mxGeometry x="-1" y="3" relative="1" as="geometry">
            <mxPoint x="180" y="110" as="sourcePoint" />
            <mxPoint x="240" y="110" as="targetPoint" />
          </mxGeometry>
        </mxCell>
        <mxCell id="cv6yg6oXkQrr2uaZ3wx9-42" value="2" style="edgeLabel;html=1;align=center;verticalAlign=middle;resizable=0;points=[];" vertex="1" connectable="0" parent="cv6yg6oXkQrr2uaZ3wx9-39">
          <mxGeometry x="0.1333" y="-1" relative="1" as="geometry">
            <mxPoint x="16" y="-21" as="offset" />
          </mxGeometry>
        </mxCell>
        <mxCell id="cv6yg6oXkQrr2uaZ3wx9-45" style="edgeStyle=orthogonalEdgeStyle;rounded=0;orthogonalLoop=1;jettySize=auto;html=1;entryX=0.379;entryY=0.006;entryDx=0;entryDy=0;entryPerimeter=0;" edge="1" parent="1" source="cv6yg6oXkQrr2uaZ3wx9-10" target="cv6yg6oXkQrr2uaZ3wx9-26">
          <mxGeometry relative="1" as="geometry" />
        </mxCell>
        <mxCell id="cv6yg6oXkQrr2uaZ3wx9-46" style="edgeStyle=orthogonalEdgeStyle;rounded=0;orthogonalLoop=1;jettySize=auto;html=1;entryX=0.05;entryY=0.45;entryDx=0;entryDy=0;entryPerimeter=0;" edge="1" parent="1" source="cv6yg6oXkQrr2uaZ3wx9-27" target="cv6yg6oXkQrr2uaZ3wx9-37">
          <mxGeometry relative="1" as="geometry">
            <mxPoint x="360" y="383" as="targetPoint" />
          </mxGeometry>
        </mxCell>
        <mxCell id="cv6yg6oXkQrr2uaZ3wx9-48" style="edgeStyle=orthogonalEdgeStyle;rounded=0;orthogonalLoop=1;jettySize=auto;html=1;entryX=0.58;entryY=0.012;entryDx=0;entryDy=0;entryPerimeter=0;" edge="1" parent="1" source="cv6yg6oXkQrr2uaZ3wx9-27" target="cv6yg6oXkQrr2uaZ3wx9-30">
          <mxGeometry relative="1" as="geometry" />
        </mxCell>
      </root>
    </mxGraphModel>
  </diagram>
</mxfile>
